<svg
   xmlns:dc="http://purl.org/dc/elements/1.1/"
   xmlns:cc="http://creativecommons.org/ns#"
   xmlns:rdf="http://www.w3.org/1999/02/22-rdf-syntax-ns#"
   xmlns:svg="http://www.w3.org/2000/svg"
   xmlns="http://www.w3.org/2000/svg"
   xmlns:sodipodi="http://sodipodi.sourceforge.net/DTD/sodipodi-0.dtd"
   xmlns:inkscape="http://www.inkscape.org/namespaces/inkscape"
   inkscape:version="1.0 (4035a4f, 2020-05-01)"
   sodipodi:docname="mawashi copy.svg"
   id="svg14"
   version="1.1"
   viewBox="0 0 100 25"
   height="150"
   width="600">
  <metadata
     id="metadata20">
    <rdf:RDF>
      <cc:Work
         rdf:about="">
        <dc:format>image/svg+xml</dc:format>
        <dc:type
           rdf:resource="http://purl.org/dc/dcmitype/StillImage" />
      </cc:Work>
    </rdf:RDF>
  </metadata>
  <defs
     id="defs18" />
  <sodipodi:namedview
     inkscape:current-layer="svg14"
     inkscape:window-maximized="0"
     inkscape:window-y="23"
     inkscape:window-x="0"
     inkscape:cy="12.806922"
     inkscape:cx="535.32109"
     inkscape:zoom="1.3988357"
     showgrid="false"
     id="namedview16"
     inkscape:window-height="1155"
     inkscape:window-width="1736"
     inkscape:pageshadow="2"
     inkscape:pageopacity="0"
     guidetolerance="10"
     gridtolerance="10"
     objecttolerance="10"
     borderopacity="1"
     bordercolor="#666666"
     pagecolor="#ffffff" />
  <g
     data-name="Group 1"
     id="Group_1">
    <path
       fill="#9E2A2B"
       d="M15.587,25H3a3,3,0,0,1-3-3V3A3,3,0,0,1,3,0H44.895A92.868,92.868,0,0,1,31.922,13.632,86.129,86.129,0,0,1,15.587,25ZM97,25H71.806A186.39,186.39,0,0,1,86.45,8.552,37.512,37.512,0,0,1,92.707,3.58,10.7,10.7,0,0,1,98.115,1.76c.51,0,1.052,0,1.612-.01A2.963,2.963,0,0,1,100,3V22A3,3,0,0,1,97,25ZM47.873,25H23.456c4.517-2.911,10.722-7.35,17.469-12.5C46.879,7.955,52.7,3.282,56.482,0h20.93C72.151,2.861,66.745,6.381,61.021,10.107,52.782,15.47,44.263,21.016,35.494,25H47.873Z"
       data-name="Exclusion 2"
       id="Exclusion_2" />
    <path
       fill="#ff8b81"
       d="M 15.582,25 C 26.655,19.269 38.299,8.748 44.889,0 H 56.482 A 371.791,371.791 0 0 1 23.456,25 Z"
       data-name="Intersection 5"
       id="Intersection_5" />
    <path
       fill="#d45b54"
       d="M 35.495,25.001 C 50.309,18.27 64.528,7.006 77.417,0.001 h 19.584 a 3,3 0 0 1 2.728,1.75 Q 98.955,1.76 98.116,1.76 c -6.6,0 -15.739,10.366 -26.31,23.24 z"
       data-name="Intersection 6"
       id="Intersection_6" />
  </g>
</svg>
